<svg xmlns="http://www.w3.org/2000/svg" width="17" height="16" fill="none" viewBox="0 0 17 16"><g id="Frame 1321315440"><path id="Vector" fill="#040B2B" d="M15.13 1.443a3.328 3.328 0 0 0-2.733-.72l-2.548.462a2.667 2.667 0 0 0-1.519.86 2.667 2.667 0 0 0-1.523-.86L4.263.722A3.333 3.333 0 0 0 .33 4.002v7.194a3.334 3.334 0 0 0 2.737 3.28l4.19.762a6 6 0 0 0 2.146 0l4.194-.762a3.333 3.333 0 0 0 2.733-3.28V4.001a3.322 3.322 0 0 0-1.2-2.558Zm-7.467 12.51a4.893 4.893 0 0 1-.168-.027l-4.19-.762a2 2 0 0 1-1.642-1.968V4.001a2 2 0 0 1 2.36-1.967L6.57 2.5a1.333 1.333 0 0 1 1.093 1.31v10.143Zm7.334-2.757a2 2 0 0 1-1.642 1.968l-4.19.762c-.056.01-.112.02-.168.027V3.81a1.333 1.333 0 0 1 1.094-1.312l2.548-.467a2 2 0 0 1 2.358 1.971v7.195Z"/></g></svg>