<svg xmlns="http://www.w3.org/2000/svg" width="17" height="16" fill="none" viewBox="0 0 17 16"><g id="Frame 1321315442"><path id="Vector" fill="#040B2B" d="M12.872 6.666a.666.666 0 0 0 .646-.832 4.67 4.67 0 0 0-1.222-2.144L9.973 1.367A4.636 4.636 0 0 0 6.673 0h-3.01A3.337 3.337 0 0 0 .33 3.333v9.333A3.337 3.337 0 0 0 3.663 16h2a.667.667 0 0 0 0-1.333h-2c-1.102 0-2-.897-2-2V3.333c0-1.102.898-2 2-2h3.01c.11 0 .217.006.324.016v3.317c0 1.103.897 2 2 2h3.875Zm-4.542-2V1.773c.253.145.488.325.7.537l2.323 2.323c.21.21.39.445.536.7H8.997a.668.668 0 0 1-.667-.667Zm7.415 3.253c-.756-.756-2.074-.756-2.829 0L8.445 12.39a2.65 2.65 0 0 0-.782 1.886v1.057c0 .368.3.667.667.667h1.057c.713 0 1.382-.278 1.886-.781l4.471-4.471c.378-.378.586-.88.586-1.415s-.208-1.037-.585-1.414ZM14.8 9.804l-4.472 4.471c-.25.252-.586.391-.942.391h-.39v-.39c0-.357.138-.691.39-.943l4.472-4.471a.682.682 0 0 1 .942 0 .66.66 0 0 1 .196.47.66.66 0 0 1-.196.472Z"/></g></svg>