<svg xmlns="http://www.w3.org/2000/svg" width="1461" height="555" fill="none" viewBox="0 0 1461 555"><path fill="url(#paint0_linear_113_859)" d="M1461 364.45v188.256c-152.96 0-347.09 2.294-577.864 2.294H23.339c-29.65-58.824-42.98-209.04 34.349-248.7 77.339-39.66 144.491 39.66 205.541 11.336 61.05-28.334 3.921-278.778 97.682-294.893C454.662 6.63 513.695 167.757 628.28 167.757c114.586 0 97.232-161.128 231.229-167.58 133.986-6.442 130.454 164.967 211.051 164.967 80.59 0 47.92-68.735 174.27-70.758 126.36-2.024 161.21 242.604 215.32 269.646.29.142.56.285.85.409v.009Z"/><defs><linearGradient id="paint0_linear_113_859" x1="722.313" x2="712.386" y1="195.5" y2="554.726" gradientUnits="userSpaceOnUse"><stop stop-color="#fff"/><stop offset="1" stop-color="#EBF2FF"/></linearGradient></defs></svg>