<svg width="1256" height="1256" viewBox="0 0 1256 1256" fill="none" xmlns="http://www.w3.org/2000/svg">
<g filter="url(#filter0_i_3971_1948)">
<circle cx="628" cy="628" r="628" fill="url(#paint0_radial_3971_1948)"/>
</g>
<path d="M533.722 727.073H463.688V620.773H533.722V633.338H477.823V662.467H533.722V675.031H477.823V714.512H533.722V727.073Z" fill="#2765B2"/>
<path d="M599.337 661.99H598.624C596.625 661.514 594.686 661.17 592.806 660.955C590.925 660.74 588.7 660.633 586.131 660.633C581.99 660.633 577.992 661.55 574.137 663.381C570.281 665.215 566.568 667.582 562.999 670.486V727.096H549.578V647.352H562.999V659.132C568.329 654.849 573.029 651.814 577.099 650.029C581.168 648.245 585.319 647.352 589.557 647.352C591.888 647.352 593.578 647.413 594.626 647.531C595.672 647.649 597.242 647.877 599.337 648.208L599.337 661.99Z" fill="#2765B2"/>
<path d="M658.142 707.457V685.255C654.051 685.491 649.231 685.851 643.687 686.323C638.142 686.8 633.749 687.491 630.515 688.395C626.66 689.491 623.542 691.193 621.162 693.5C618.782 695.809 617.594 698.985 617.594 703.031C617.594 707.599 618.974 711.039 621.735 713.347C624.495 715.655 628.706 716.808 634.37 716.808C639.082 716.808 643.389 715.893 647.292 714.062C651.193 712.228 654.812 710.027 658.142 707.457ZM671.494 727.088H658.142V718.594C656.953 719.402 655.347 720.533 653.325 721.983C651.301 723.436 649.338 724.59 647.435 725.447C645.198 726.541 642.627 727.457 639.725 728.194C636.821 728.933 633.419 729.302 629.517 729.302C622.328 729.302 616.237 726.922 611.238 722.163C606.241 717.403 603.742 711.335 603.742 703.958C603.742 697.913 605.038 693.023 607.633 689.288C610.226 685.552 613.926 682.613 618.734 680.472C623.589 678.328 629.416 676.878 636.224 676.116C643.03 675.354 650.335 674.784 658.14 674.402V672.332C658.14 669.288 657.605 666.764 656.536 664.763C655.464 662.767 653.929 661.194 651.929 660.052C650.028 658.958 647.742 658.221 645.076 657.839C642.41 657.459 639.626 657.268 636.724 657.268C633.201 657.268 629.275 657.732 624.945 658.661C620.612 659.588 616.138 660.933 611.524 662.693H610.809V649.058C613.426 648.345 617.209 647.559 622.16 646.702C627.109 645.846 631.987 645.418 636.795 645.418C642.41 645.418 647.3 645.882 651.465 646.809C655.63 647.737 659.236 649.322 662.28 651.558C665.281 653.748 667.564 656.58 669.136 660.051C670.706 663.528 671.492 667.834 671.492 672.973L671.494 727.088Z" fill="#2765B2"/>
<path d="M749.229 704.095C749.229 711.378 746.219 717.353 740.199 722.015C734.176 726.68 725.956 729.013 715.534 729.013C709.631 729.013 704.218 728.309 699.291 726.905C694.367 725.501 690.236 723.969 686.906 722.302V707.238H687.619C691.855 710.427 696.566 712.96 701.755 714.84C706.942 716.723 711.916 717.66 716.676 717.66C722.577 717.66 727.194 716.71 730.524 714.805C733.856 712.901 735.522 709.904 735.522 705.809C735.522 702.671 734.619 700.289 732.81 698.67C731 697.054 727.526 695.673 722.388 694.53C720.483 694.103 717.998 693.603 714.927 693.032C711.858 692.46 709.06 691.842 706.538 691.175C699.543 689.318 694.58 686.595 691.653 683.001C688.726 679.407 687.263 674.994 687.263 669.756C687.263 666.473 687.942 663.38 689.297 660.478C690.654 657.574 692.712 654.979 695.473 652.697C698.137 650.458 701.528 648.685 705.647 647.377C709.763 646.068 714.368 645.414 719.461 645.414C724.22 645.414 729.039 645.998 733.917 647.162C738.795 648.329 742.853 649.745 746.09 651.411V665.761H745.377C741.949 663.239 737.784 661.108 732.882 659.372C727.979 657.633 723.175 656.764 718.463 656.764C713.56 656.764 709.42 657.704 706.042 659.584C702.659 661.467 700.97 664.262 700.97 667.973C700.97 671.256 701.993 673.732 704.041 675.397C706.041 677.064 709.275 678.422 713.751 679.467C716.224 680.038 718.998 680.609 722.066 681.181C725.138 681.752 727.694 682.277 729.743 682.751C735.975 684.18 740.783 686.629 744.164 690.104C747.543 693.627 749.229 698.291 749.229 704.095Z" fill="#2765B2"/>
<path d="M879.85 727.073H866.428V681.669C866.428 678.242 866.274 674.934 865.964 671.745C865.654 668.557 865.001 666.01 864.002 664.107C862.906 662.061 861.336 660.516 859.29 659.466C857.245 658.421 854.292 657.896 850.437 657.896C846.677 657.896 842.919 658.836 839.158 660.716C835.398 662.598 831.638 664.988 827.878 667.89C828.021 668.987 828.139 670.259 828.236 671.709C828.331 673.162 828.379 674.602 828.379 676.031V727.073H814.955V681.67C814.955 678.147 814.801 674.805 814.492 671.639C814.182 668.475 813.528 665.942 812.529 664.036C811.433 661.99 809.863 660.455 807.818 659.431C805.772 658.409 802.819 657.896 798.965 657.896C795.3 657.896 791.623 658.803 787.935 660.609C784.246 662.418 780.569 664.728 776.904 667.535V727.074H763.484V647.33H776.904V656.182C781.094 652.711 785.268 649.996 789.434 648.045C793.599 646.095 798.037 645.117 802.749 645.117C808.174 645.117 812.778 646.26 816.563 648.545C820.347 650.829 823.167 653.995 825.022 658.04C830.45 653.47 835.398 650.176 839.871 648.152C844.346 646.128 849.129 645.117 854.222 645.117C862.978 645.117 869.438 647.771 873.603 653.076C877.768 658.385 879.851 665.796 879.851 675.316L879.85 727.073Z" fill="#2765B2"/>
<path d="M964.402 727.076H950.982V718.224C946.459 721.792 942.13 724.533 937.99 726.433C933.849 728.339 929.279 729.29 924.281 729.29C915.905 729.29 909.383 726.731 904.72 721.615C900.055 716.5 897.727 708.992 897.727 699.092V647.332H911.146V692.735C911.146 696.781 911.337 700.243 911.718 703.124C912.099 706.002 912.907 708.465 914.144 710.511C915.429 712.607 917.096 714.129 919.142 715.081C921.188 716.034 924.162 716.507 928.065 716.507C931.539 716.507 935.335 715.604 939.451 713.795C943.568 711.988 947.414 709.679 950.982 706.871V647.328H964.402L964.402 727.076Z" fill="#2765B2"/>
<path d="M1042.79 704.095C1042.79 711.378 1039.78 717.353 1033.75 722.015C1027.73 726.68 1019.51 729.013 1009.09 729.013C1003.19 729.013 997.774 728.309 992.849 726.905C987.923 725.501 983.794 723.969 980.461 722.302V707.238H981.177C985.412 710.427 990.125 712.96 995.312 714.84C1000.5 716.723 1005.47 717.66 1010.23 717.66C1016.13 717.66 1020.75 716.71 1024.08 714.805C1027.41 712.901 1029.08 709.904 1029.08 705.809C1029.08 702.671 1028.17 700.289 1026.37 698.67C1024.56 697.054 1021.08 695.673 1015.94 694.53C1014.04 694.103 1011.55 693.603 1008.48 693.032C1005.41 692.46 1002.62 691.842 1000.09 691.175C993.099 689.318 988.137 686.595 985.21 683.001C982.283 679.407 980.82 674.994 980.82 669.756C980.82 666.473 981.496 663.38 982.854 660.478C984.211 657.574 986.268 654.979 989.029 652.697C991.695 650.458 995.086 648.685 999.203 647.377C1003.32 646.068 1007.92 645.414 1013.01 645.414C1017.78 645.414 1022.59 645.998 1027.47 647.162C1032.35 648.329 1036.41 649.745 1039.65 651.411V665.761H1038.93C1035.5 663.239 1031.34 661.108 1026.44 659.372C1021.54 657.633 1016.73 656.764 1012.02 656.764C1007.12 656.764 1002.97 657.704 999.596 659.584C996.217 661.467 994.527 664.262 994.527 667.973C994.527 671.256 995.551 673.732 997.596 675.397C999.596 677.064 1002.83 678.422 1007.31 679.467C1009.78 680.038 1012.55 680.609 1015.62 681.181C1018.69 681.752 1021.25 682.277 1023.3 682.751C1029.53 684.18 1034.34 686.629 1037.72 690.104C1041.1 693.627 1042.79 698.291 1042.79 704.095Z" fill="#2765B2"/>
<path d="M1155.19 686.256H1116.28V725.166H1104.43V686.256H1065.52V674.832H1104.43V635.926H1116.28V674.832H1155.19V686.256Z" fill="#2765B2"/>
<path d="M419.423 514.512H100.516V727.117H419.423V514.512Z" fill="#2765B2"/>
<path d="M259.969 538.133L256.319 549.366L261.935 551.191L259.969 538.133Z" fill="#FFCC00"/>
<path d="M259.969 538.133L263.619 549.366L258.002 551.191L259.969 538.133Z" fill="#FFCC00"/>
<path d="M271.203 546.297H259.392V552.203L271.203 546.297Z" fill="#FFCC00"/>
<path d="M271.203 546.297L261.647 553.239L258.176 548.462L271.203 546.297Z" fill="#FFCC00"/>
<path d="M266.914 559.5L263.264 548.267L257.647 550.092L266.914 559.5Z" fill="#FFCC00"/>
<path d="M266.914 559.5L257.358 552.557L260.83 547.78L266.914 559.5Z" fill="#FFCC00"/>
<path d="M248.734 546.297H260.546V552.203L248.734 546.297Z" fill="#FFCC00"/>
<path d="M248.734 546.297L258.29 553.239L261.761 548.462L248.734 546.297Z" fill="#FFCC00"/>
<path d="M253.023 559.5L256.673 548.267L262.29 550.092L253.023 559.5Z" fill="#FFCC00"/>
<path d="M253.023 559.5L262.579 552.557L259.108 547.78L253.023 559.5Z" fill="#FFCC00"/>
<path d="M259.969 679.871L256.319 691.104L261.935 692.929L259.969 679.871Z" fill="#FFCC00"/>
<path d="M259.969 679.871L263.619 691.104L258.002 692.929L259.969 679.871Z" fill="#FFCC00"/>
<path d="M271.203 688.035H259.392V693.941L271.203 688.035Z" fill="#FFCC00"/>
<path d="M271.203 688.035L261.647 694.978L258.176 690.2L271.203 688.035Z" fill="#FFCC00"/>
<path d="M266.914 701.238L263.264 690.005L257.647 691.83L266.914 701.238Z" fill="#FFCC00"/>
<path d="M266.914 701.238L257.358 694.296L260.83 689.518L266.914 701.238Z" fill="#FFCC00"/>
<path d="M248.734 688.035H260.546V693.941L248.734 688.035Z" fill="#FFCC00"/>
<path d="M248.734 688.035L258.29 694.978L261.761 690.2L248.734 688.035Z" fill="#FFCC00"/>
<path d="M253.023 701.238L256.673 690.005L262.29 691.83L253.023 701.238Z" fill="#FFCC00"/>
<path d="M253.023 701.238L262.579 694.296L259.108 689.518L253.023 701.238Z" fill="#FFCC00"/>
<path d="M189.102 609L185.452 620.233L191.068 622.058L189.102 609Z" fill="#FFCC00"/>
<path d="M189.102 609L192.751 620.233L187.135 622.058L189.102 609Z" fill="#FFCC00"/>
<path d="M200.336 617.164H188.525V623.07L200.336 617.164Z" fill="#FFCC00"/>
<path d="M200.336 617.164L190.78 624.107L187.309 619.329L200.336 617.164Z" fill="#FFCC00"/>
<path d="M196.047 630.367L192.397 619.134L186.78 620.959L196.047 630.367Z" fill="#FFCC00"/>
<path d="M196.047 630.367L186.491 623.425L189.963 618.647L196.047 630.367Z" fill="#FFCC00"/>
<path d="M177.867 617.164H189.679V623.07L177.867 617.164Z" fill="#FFCC00"/>
<path d="M177.867 617.164L187.423 624.107L190.894 619.329L177.867 617.164Z" fill="#FFCC00"/>
<path d="M182.156 630.367L185.806 619.134L191.423 620.959L182.156 630.367Z" fill="#FFCC00"/>
<path d="M182.156 630.367L191.712 623.425L188.241 618.647L182.156 630.367Z" fill="#FFCC00"/>
<path d="M217.602 568.992L227.157 562.05L223.686 557.272L217.602 568.992Z" fill="#FFCC00"/>
<path d="M217.602 568.992L221.251 557.759L226.868 559.584L217.602 568.992Z" fill="#FFCC00"/>
<path d="M213.305 555.785L222.86 562.728L226.332 557.95L213.305 555.785Z" fill="#FFCC00"/>
<path d="M213.305 555.785H225.116V561.691L213.305 555.785Z" fill="#FFCC00"/>
<path d="M224.539 547.625L220.889 558.858L226.506 560.683L224.539 547.625Z" fill="#FFCC00"/>
<path d="M224.539 547.625L228.189 558.858L222.572 560.683L224.539 547.625Z" fill="#FFCC00"/>
<path d="M231.477 568.992L221.921 562.05L225.392 557.272L231.477 568.992Z" fill="#FFCC00"/>
<path d="M231.477 568.992L227.827 557.759L222.21 559.584L231.477 568.992Z" fill="#FFCC00"/>
<path d="M235.773 555.785L226.218 562.728L222.747 557.95L235.773 555.785Z" fill="#FFCC00"/>
<path d="M235.773 555.785H223.962V561.691L235.773 555.785Z" fill="#FFCC00"/>
<path d="M205.539 594.93L201.889 583.696L196.272 585.521L205.539 594.93Z" fill="#FFCC00"/>
<path d="M205.539 594.93L195.983 587.987L199.455 583.209L205.539 594.93Z" fill="#FFCC00"/>
<path d="M191.656 594.93L201.212 587.987L197.741 583.209L191.656 594.93Z" fill="#FFCC00"/>
<path d="M191.656 594.93L195.306 583.696L200.923 585.521L191.656 594.93Z" fill="#FFCC00"/>
<path d="M187.359 581.723L196.915 588.665L200.386 583.887L187.359 581.723Z" fill="#FFCC00"/>
<path d="M187.359 581.723H199.171V587.628L187.359 581.723Z" fill="#FFCC00"/>
<path d="M209.836 581.727L200.28 588.669L196.809 583.891L209.836 581.727Z" fill="#FFCC00"/>
<path d="M209.836 581.727H198.025V587.632L209.836 581.727Z" fill="#FFCC00"/>
<path d="M198.602 573.566L202.251 584.8L196.635 586.625L198.602 573.566Z" fill="#FFCC00"/>
<path d="M198.602 573.566L194.952 584.8L200.568 586.625L198.602 573.566Z" fill="#FFCC00"/>
<path d="M209.828 652.598H198.017V658.503L209.828 652.598Z" fill="#FFCC00"/>
<path d="M209.828 652.598L200.272 659.54L196.801 654.762L209.828 652.598Z" fill="#FFCC00"/>
<path d="M205.539 665.801L201.889 654.567L196.272 656.392L205.539 665.801Z" fill="#FFCC00"/>
<path d="M205.539 665.801L195.983 658.858L199.455 654.08L205.539 665.801Z" fill="#FFCC00"/>
<path d="M191.656 665.805L201.212 658.862L197.741 654.084L191.656 665.805Z" fill="#FFCC00"/>
<path d="M191.656 665.805L195.306 654.571L200.923 656.396L191.656 665.805Z" fill="#FFCC00"/>
<path d="M198.594 644.438L202.244 655.671L196.627 657.496L198.594 644.438Z" fill="#FFCC00"/>
<path d="M198.594 644.438L194.944 655.671L200.56 657.496L198.594 644.438Z" fill="#FFCC00"/>
<path d="M187.367 652.598H199.179V658.503L187.367 652.598Z" fill="#FFCC00"/>
<path d="M187.367 652.598L196.923 659.54L200.394 654.762L187.367 652.598Z" fill="#FFCC00"/>
<path d="M235.766 678.535H223.954V684.441L235.766 678.535Z" fill="#FFCC00"/>
<path d="M235.766 678.535L226.21 685.478L222.739 680.7L235.766 678.535Z" fill="#FFCC00"/>
<path d="M231.477 691.738L227.827 680.505L222.21 682.33L231.477 691.738Z" fill="#FFCC00"/>
<path d="M231.477 691.738L221.921 684.796L225.392 680.018L231.477 691.738Z" fill="#FFCC00"/>
<path d="M217.594 691.742L227.149 684.8L223.678 680.022L217.594 691.742Z" fill="#FFCC00"/>
<path d="M217.594 691.742L221.244 680.509L226.86 682.334L217.594 691.742Z" fill="#FFCC00"/>
<path d="M224.531 670.375L228.181 681.608L222.565 683.433L224.531 670.375Z" fill="#FFCC00"/>
<path d="M224.531 670.375L220.881 681.608L226.498 683.433L224.531 670.375Z" fill="#FFCC00"/>
<path d="M213.305 678.535H225.116V684.441L213.305 678.535Z" fill="#FFCC00"/>
<path d="M213.305 678.535L222.86 685.478L226.332 680.7L213.305 678.535Z" fill="#FFCC00"/>
<path d="M330.836 609L334.486 620.233L328.869 622.058L330.836 609Z" fill="#FFCC00"/>
<path d="M330.836 609L327.186 620.233L332.803 622.058L330.836 609Z" fill="#FFCC00"/>
<path d="M319.602 617.164H331.413V623.07L319.602 617.164Z" fill="#FFCC00"/>
<path d="M319.602 617.164L329.157 624.107L332.628 619.329L319.602 617.164Z" fill="#FFCC00"/>
<path d="M323.891 630.367L327.541 619.134L333.157 620.959L323.891 630.367Z" fill="#FFCC00"/>
<path d="M323.891 630.367L333.446 623.425L329.975 618.647L323.891 630.367Z" fill="#FFCC00"/>
<path d="M342.07 617.164H330.259V623.07L342.07 617.164Z" fill="#FFCC00"/>
<path d="M342.07 617.164L332.515 624.107L329.043 619.329L342.07 617.164Z" fill="#FFCC00"/>
<path d="M337.781 630.367L334.131 619.134L328.515 620.959L337.781 630.367Z" fill="#FFCC00"/>
<path d="M337.781 630.367L328.226 623.425L331.697 618.647L337.781 630.367Z" fill="#FFCC00"/>
<path d="M302.336 568.992L292.78 562.05L296.252 557.272L302.336 568.992Z" fill="#FFCC00"/>
<path d="M302.336 568.992L298.686 557.759L293.069 559.584L302.336 568.992Z" fill="#FFCC00"/>
<path d="M306.633 555.785L297.077 562.728L293.606 557.95L306.633 555.785Z" fill="#FFCC00"/>
<path d="M306.633 555.785H294.821V561.691L306.633 555.785Z" fill="#FFCC00"/>
<path d="M295.398 547.625L299.048 558.858L293.432 560.683L295.398 547.625Z" fill="#FFCC00"/>
<path d="M295.398 547.625L291.749 558.858L297.365 560.683L295.398 547.625Z" fill="#FFCC00"/>
<path d="M288.461 568.992L298.017 562.05L294.545 557.272L288.461 568.992Z" fill="#FFCC00"/>
<path d="M288.461 568.992L292.111 557.759L297.728 559.584L288.461 568.992Z" fill="#FFCC00"/>
<path d="M284.164 555.785L293.72 562.728L297.191 557.95L284.164 555.785Z" fill="#FFCC00"/>
<path d="M284.164 555.785H295.975V561.691L284.164 555.785Z" fill="#FFCC00"/>
<path d="M314.398 594.93L318.048 583.696L323.665 585.521L314.398 594.93Z" fill="#FFCC00"/>
<path d="M314.398 594.93L323.954 587.987L320.483 583.209L314.398 594.93Z" fill="#FFCC00"/>
<path d="M328.281 594.93L318.726 587.987L322.197 583.209L328.281 594.93Z" fill="#FFCC00"/>
<path d="M328.281 594.93L324.631 583.696L319.015 585.521L328.281 594.93Z" fill="#FFCC00"/>
<path d="M332.578 581.723L323.022 588.665L319.551 583.887L332.578 581.723Z" fill="#FFCC00"/>
<path d="M332.578 581.723H320.767V587.628L332.578 581.723Z" fill="#FFCC00"/>
<path d="M310.102 581.727L319.657 588.669L323.128 583.891L310.102 581.727Z" fill="#FFCC00"/>
<path d="M310.102 581.727H321.913V587.632L310.102 581.727Z" fill="#FFCC00"/>
<path d="M321.336 573.566L317.686 584.8L323.303 586.625L321.336 573.566Z" fill="#FFCC00"/>
<path d="M321.336 573.566L324.986 584.8L319.369 586.625L321.336 573.566Z" fill="#FFCC00"/>
<path d="M310.109 652.598H321.921V658.503L310.109 652.598Z" fill="#FFCC00"/>
<path d="M310.109 652.598L319.665 659.54L323.136 654.762L310.109 652.598Z" fill="#FFCC00"/>
<path d="M314.398 665.801L318.048 654.567L323.665 656.392L314.398 665.801Z" fill="#FFCC00"/>
<path d="M314.398 665.801L323.954 658.858L320.483 654.08L314.398 665.801Z" fill="#FFCC00"/>
<path d="M328.281 665.805L318.726 658.862L322.197 654.084L328.281 665.805Z" fill="#FFCC00"/>
<path d="M328.281 665.805L324.631 654.571L319.015 656.396L328.281 665.805Z" fill="#FFCC00"/>
<path d="M321.344 644.438L317.694 655.671L323.31 657.496L321.344 644.438Z" fill="#FFCC00"/>
<path d="M321.344 644.438L324.994 655.671L319.377 657.496L321.344 644.438Z" fill="#FFCC00"/>
<path d="M332.57 652.598H320.759V658.503L332.57 652.598Z" fill="#FFCC00"/>
<path d="M332.57 652.598L323.015 659.54L319.543 654.762L332.57 652.598Z" fill="#FFCC00"/>
<path d="M284.172 678.535H295.983V684.441L284.172 678.535Z" fill="#FFCC00"/>
<path d="M284.172 678.535L293.728 685.478L297.199 680.7L284.172 678.535Z" fill="#FFCC00"/>
<path d="M288.461 691.738L292.111 680.505L297.728 682.33L288.461 691.738Z" fill="#FFCC00"/>
<path d="M288.461 691.738L298.017 684.796L294.545 680.018L288.461 691.738Z" fill="#FFCC00"/>
<path d="M302.344 691.742L292.788 684.8L296.259 680.022L302.344 691.742Z" fill="#FFCC00"/>
<path d="M302.344 691.742L298.694 680.509L293.077 682.334L302.344 691.742Z" fill="#FFCC00"/>
<path d="M295.406 670.375L291.756 681.608L297.373 683.433L295.406 670.375Z" fill="#FFCC00"/>
<path d="M295.406 670.375L299.056 681.608L293.44 683.433L295.406 670.375Z" fill="#FFCC00"/>
<path d="M306.633 678.535H294.821V684.441L306.633 678.535Z" fill="#FFCC00"/>
<path d="M306.633 678.535L297.077 685.478L293.606 680.7L306.633 678.535Z" fill="#FFCC00"/>
<defs>
<filter id="filter0_i_3971_1948" x="0" y="-16" width="1256" height="1272" filterUnits="userSpaceOnUse" color-interpolation-filters="sRGB">
<feFlood flood-opacity="0" result="BackgroundImageFix"/>
<feBlend mode="normal" in="SourceGraphic" in2="BackgroundImageFix" result="shape"/>
<feColorMatrix in="SourceAlpha" type="matrix" values="0 0 0 0 0 0 0 0 0 0 0 0 0 0 0 0 0 0 127 0" result="hardAlpha"/>
<feMorphology radius="16" operator="erode" in="SourceAlpha" result="effect1_innerShadow_3971_1948"/>
<feOffset dy="-16"/>
<feGaussianBlur stdDeviation="25.2"/>
<feComposite in2="hardAlpha" operator="arithmetic" k2="-1" k3="1"/>
<feColorMatrix type="matrix" values="0 0 0 0 0 0 0 0 0 0 0 0 0 0 0 0 0 0 0.18 0"/>
<feBlend mode="normal" in2="shape" result="effect1_innerShadow_3971_1948"/>
</filter>
<radialGradient id="paint0_radial_3971_1948" cx="0" cy="0" r="1" gradientUnits="userSpaceOnUse" gradientTransform="translate(645.5 459.5) rotate(91.2587) scale(796.692)">
<stop stop-color="white"/>
<stop offset="1" stop-color="#EFF1FF"/>
</radialGradient>
</defs>
</svg>
