<svg width="1256" height="1256" viewBox="0 0 1256 1256" fill="none" xmlns="http://www.w3.org/2000/svg">
<g filter="url(#filter0_i_3971_2325)">
<circle cx="628" cy="628" r="628" fill="url(#paint0_radial_3971_2325)"/>
</g>
<path d="M554.068 525.09V671.95H635.953L643.964 630.117H669.479C654.348 693.609 584.33 735.738 502.147 729.211C424.118 723.277 340.452 679.071 340.749 596.592C341.045 505.508 422.635 452.994 498.884 449.731C549.914 447.654 607.175 467.236 648.414 501.355C650.788 503.431 651.381 503.728 651.678 504.025C651.975 504.322 652.271 504.322 654.348 506.102L656.722 507.882H747.805V345H653.161V390.393C614.592 367.845 553.474 346.187 483.159 346.483C402.757 346.78 324.431 379.713 268.06 436.677C222.073 483.553 197.448 540.518 198.042 597.778C198.635 653.852 224.15 707.553 269.247 748.793C326.804 801.306 411.064 828.602 494.137 821.778C558.815 816.438 616.372 802.196 658.502 781.132V797.153H758.782V630.414H782.814V815.844H734.751V910.488H956.97V815.844H908.907V630.117H1010.37L1017.79 671.95H1099.97V525.09H554.068Z" fill="#003057"/>
<path d="M570.09 655.931H622.307L630.317 614.098H688.468L686.985 623.296C675.414 700.138 595.308 752.652 500.664 745.531C415.515 739.004 324.135 689.457 324.432 596.891C324.728 508.181 399.494 438.162 497.994 434.009C552.882 431.635 614.296 452.7 658.503 489.193C660.283 490.676 660.283 490.676 660.579 490.973C660.876 491.27 661.173 491.27 662.063 492.16H731.191V361.023H668.887V417.988L655.536 411.164C621.417 387.429 558.815 362.507 484.643 362.507H483.457C406.911 362.804 332.739 393.956 279.632 447.953C236.909 491.566 213.47 544.673 214.36 597.484C214.954 649.108 238.392 698.655 280.225 736.631C334.519 786.178 414.032 811.989 492.951 805.462C561.782 799.825 622.01 783.804 662.953 760.366L675.117 753.245L674.82 780.837H742.465V614.098H798.836V831.868H750.773V894.172H940.653V831.868H892.59V614.098H1023.73L1031.14 655.931H1083.66V541.113H570.09V655.931Z" fill="#B3A369"/>
<defs>
<filter id="filter0_i_3971_2325" x="0" y="-16" width="1256" height="1272" filterUnits="userSpaceOnUse" color-interpolation-filters="sRGB">
<feFlood flood-opacity="0" result="BackgroundImageFix"/>
<feBlend mode="normal" in="SourceGraphic" in2="BackgroundImageFix" result="shape"/>
<feColorMatrix in="SourceAlpha" type="matrix" values="0 0 0 0 0 0 0 0 0 0 0 0 0 0 0 0 0 0 127 0" result="hardAlpha"/>
<feMorphology radius="16" operator="erode" in="SourceAlpha" result="effect1_innerShadow_3971_2325"/>
<feOffset dy="-16"/>
<feGaussianBlur stdDeviation="25.2"/>
<feComposite in2="hardAlpha" operator="arithmetic" k2="-1" k3="1"/>
<feColorMatrix type="matrix" values="0 0 0 0 0 0 0 0 0 0 0 0 0 0 0 0 0 0 0.18 0"/>
<feBlend mode="normal" in2="shape" result="effect1_innerShadow_3971_2325"/>
</filter>
<radialGradient id="paint0_radial_3971_2325" cx="0" cy="0" r="1" gradientUnits="userSpaceOnUse" gradientTransform="translate(645.5 459.5) rotate(91.2587) scale(796.692)">
<stop stop-color="white"/>
<stop offset="1" stop-color="#EFF1FF"/>
</radialGradient>
</defs>
</svg>
