<svg width="1256" height="1256" viewBox="0 0 1256 1256" fill="none" xmlns="http://www.w3.org/2000/svg">
<g filter="url(#filter0_i_3971_2183)">
<circle cx="628" cy="628" r="628" fill="url(#paint0_radial_3971_2183)"/>
</g>
<mask id="mask0_3971_2183" style="mask-type:luminance" maskUnits="userSpaceOnUse" x="166" y="452" width="925" height="424">
<path d="M166 452H1090.58V875.681H166V452Z" fill="white"/>
</mask>
<g mask="url(#mask0_3971_2183)">
<path d="M583.252 717.903C585.604 715.936 589.14 714.696 592.419 714.696C598.25 714.696 600.24 717.484 600.24 722.944C597.947 722.811 596.329 722.811 594.033 722.811C588.03 722.811 579.347 725.28 579.347 733.225C579.347 740.088 584.124 743.083 590.941 743.083C596.268 743.083 599.37 740.164 600.735 738.241H600.852V742.335H606.31C606.181 741.399 606.064 739.732 606.064 736.128V723.062C606.064 714.444 602.413 709.98 593.361 709.98C589.323 709.98 585.853 711.214 582.94 712.955L583.252 717.903ZM600.24 730.066C600.24 734.767 597.197 738.371 591.426 738.371C588.778 738.371 585.545 736.562 585.545 733.223C585.545 727.646 593.359 727.152 596.523 727.152C597.756 727.152 598.99 727.266 600.24 727.266V730.066ZM632.707 715.428H624.344V732.722C624.344 736.381 626.582 738.361 629.245 738.361C631.048 738.361 632.347 737.804 633.21 737.253V742.205C631.901 742.579 630.108 743.081 628.248 743.081C622.239 743.081 618.52 740.231 618.52 733.895V715.428H611.392V710.723H618.52V703.404L624.342 701.556V710.723H632.705L632.707 715.428ZM646.974 697.089H640.395V703.661H646.974V697.089ZM640.763 742.326H646.594V710.716H640.763V742.326ZM655.138 726.528C655.138 735.567 661.71 743.075 671.257 743.075C680.738 743.075 687.307 735.567 687.307 726.528C687.307 716.915 680.868 709.976 671.257 709.976C661.593 709.976 655.138 716.915 655.138 726.528ZM661.34 726.528C661.34 720.516 664.991 714.696 671.259 714.696C677.451 714.696 681.11 720.516 681.11 726.528C681.11 732.167 678.084 738.371 671.259 738.371C664.382 738.371 661.34 732.167 661.34 726.528ZM695.129 710.723H700.762V715.741H700.879C702.624 712.145 706.841 709.976 711.24 709.976C719.412 709.976 723.08 715.058 723.08 723.553V742.333H717.243V725.973C717.243 718.596 715.648 715.003 710.554 714.698C703.92 714.698 700.951 720.017 700.951 727.699V742.335H695.129V710.723ZM734.781 717.903C737.143 715.936 740.667 714.696 743.95 714.696C749.782 714.696 751.762 717.484 751.762 722.944C749.476 722.811 747.856 722.811 745.57 722.811C739.567 722.811 730.885 725.28 730.885 733.225C730.885 740.088 735.653 743.083 742.47 743.083C747.798 743.083 750.897 740.164 752.262 738.241H752.379V742.335H757.839C757.716 741.399 757.594 739.732 757.594 736.128V723.062C757.594 714.444 753.941 709.98 744.881 709.98C740.874 709.98 737.388 711.214 734.477 712.955L734.781 717.903ZM751.762 730.066C751.762 734.767 748.736 738.371 742.963 738.371C740.299 738.371 737.077 736.562 737.077 733.223C737.077 727.646 744.881 727.152 748.055 727.152C749.281 727.152 750.529 727.266 751.762 727.266V730.066ZM768.194 695.847H774.016V742.332H768.194V695.847ZM834.393 724.424C834.393 736.562 828.258 743.081 817.599 743.081C806.94 743.081 800.799 736.562 800.799 724.424V699.064H807.007V723.617C807.007 731.918 809.596 737.614 817.597 737.614C825.59 737.614 828.19 731.918 828.19 723.617V699.064H834.391V724.424H834.393ZM844.933 710.723H850.574V715.741H850.691C852.434 712.145 856.653 709.976 861.044 709.976C869.224 709.976 872.892 715.058 872.892 723.553V742.333H867.063V725.973C867.063 718.596 865.443 715.003 860.361 714.698C853.734 714.698 850.757 720.017 850.757 727.699V742.335H844.933V710.723ZM889.741 703.661H883.169V697.089H889.741V703.661ZM883.534 710.723H889.365V742.332H883.534V710.723ZM895.752 710.716H902.135L910.687 736.511H910.819L919.552 710.716H925.374L914.034 742.326H907.094L895.752 710.716ZM955.247 735.205C953.828 736.381 949.361 738.361 945.521 738.361C940.013 738.361 935.11 734.078 935.11 727.819H957.666C957.666 717.663 954.254 709.983 943.72 709.983C934.798 709.983 928.902 716.61 928.902 725.972C928.902 736.247 934.056 743.081 945.274 743.081C950.473 743.081 953.022 741.833 955.247 741.035V735.205ZM935.11 723.485C935.538 719.388 937.896 714.694 943.595 714.694C948.611 714.694 951.458 718.658 951.458 723.485H935.11ZM965.478 710.723H970.93V715.619H971.062C972.598 712.328 975.955 709.978 979.295 709.978C981.031 709.978 981.9 710.159 983.144 710.422V715.62C982.085 715.182 980.909 715.062 979.922 715.062C974.707 715.062 971.311 720.019 971.311 727.963V742.335H965.48L965.478 710.723ZM987.237 736.124C989.517 737.614 992.812 738.371 994.482 738.371C997.148 738.371 1000.44 737.253 1000.44 733.85C1000.44 728.074 986.721 728.579 986.721 719.704C986.721 713.142 991.622 709.976 997.888 709.976C1000.62 709.976 1002.84 710.534 1005.15 711.21L1004.65 716.308C1003.35 715.484 999.868 714.696 998.511 714.696C995.536 714.696 992.936 715.938 992.936 718.537C992.936 724.977 1006.63 723.117 1006.63 733.225C1006.63 739.968 1001.23 743.083 995.592 743.083C992.617 743.083 989.591 742.774 986.918 741.342L987.237 736.124ZM1020.63 703.661H1014.06V697.089H1020.63V703.661ZM1014.43 710.723H1020.26V742.332H1014.43V710.723ZM1047.71 715.428H1039.36V732.722C1039.36 736.381 1041.58 738.361 1044.25 738.361C1046.05 738.361 1047.34 737.804 1048.21 737.253V742.205C1046.92 742.579 1045.11 743.081 1043.26 743.081C1037.24 743.081 1033.53 740.231 1033.53 733.895V715.428H1026.4V710.723H1033.53V703.404L1039.36 701.556V710.723H1047.71V715.428ZM1052.68 750.887C1053.42 751.135 1054.41 751.382 1055.4 751.382C1060.6 751.382 1062.34 744.193 1062.34 743.574C1062.34 742.892 1061.6 741.272 1061.22 740.221L1050.5 710.723H1056.89L1065.37 736.891H1065.5L1074.18 710.723H1080.08L1068.42 743.007C1066.25 749.078 1063.95 756.082 1056.27 756.082C1054.4 756.082 1053.35 755.845 1052.31 755.656L1052.68 750.887ZM534.604 799.773C534.604 808.819 541.166 816.317 550.719 816.317C560.191 816.317 566.773 808.817 566.773 799.773C566.773 790.165 560.316 783.22 550.719 783.22C541.049 783.22 534.604 790.165 534.604 799.773ZM540.802 799.773C540.802 793.762 544.453 787.942 550.719 787.942C556.912 787.942 560.571 793.762 560.571 799.773C560.571 805.406 557.535 811.613 550.719 811.613C543.828 811.613 540.802 805.406 540.802 799.773ZM578.351 788.687H570.916V783.969H578.351V781.058C578.351 773.377 580.348 768.351 588.961 768.351C590.44 768.351 591.681 768.534 592.851 768.731L592.619 773.435C591.936 773.178 590.801 773.065 589.823 773.065C584.798 773.065 584.188 776.29 584.188 780.568V783.971H592.561V788.689H584.188V815.564H578.349L578.351 788.687ZM634.392 778.829C631.233 777.587 629.5 777.028 626.284 777.028C622.804 777.028 618.709 778.268 618.709 782.793C618.709 791.108 637.303 789.164 637.303 803.433C637.303 812.659 630.182 816.327 621.497 816.327C618.472 816.327 615.487 815.447 612.648 814.528L613.257 808.763C615.364 809.635 619.079 810.867 622.245 810.867C625.781 810.867 630.741 808.885 630.741 803.791C630.741 794.139 612.149 796.803 612.149 783.36C612.149 775.653 618.218 771.574 626.038 771.574C628.883 771.574 632.287 772.068 635.256 773.114L634.392 778.829ZM652.122 776.907H645.551V770.343H652.122V776.907ZM645.923 783.977H651.76V815.57H645.923V783.977ZM662.409 783.969H668.048V788.993H668.171C669.915 785.389 674.123 783.21 678.516 783.21C686.706 783.21 690.366 788.312 690.366 796.803V815.56H684.529V799.214C684.529 791.838 682.924 788.251 677.834 787.94C671.206 787.94 668.239 793.265 668.239 800.947V815.56H662.409V783.969ZM728.235 783.969H722.839V788.687H722.71C720.974 785.276 717.889 783.22 712.307 783.22C702.752 783.22 698.171 791.902 698.171 800.03C698.171 808.202 702.628 815.562 711.674 815.562C715.712 815.562 719.807 813.967 722.282 810.679H722.397V813.78C722.397 820.473 718.746 824.624 712.605 824.624C708.329 824.624 705.671 823.83 701.206 821.777L700.581 827.169C705.671 828.9 708.582 829.338 711.929 829.338C723.269 829.338 728.235 823.83 728.235 814.205V783.969ZM713.171 810.867C707.719 810.867 704.372 805.661 704.372 799.71C704.372 794.322 707.291 787.942 713.171 787.942C719.373 787.942 722.397 793.575 722.397 800.144C722.397 806.031 718.623 810.867 713.171 810.867ZM739.947 791.162C742.299 789.174 745.827 787.942 749.116 787.942C754.938 787.942 756.92 790.73 756.92 796.178C754.642 796.052 753.022 796.052 750.728 796.052C744.717 796.052 736.041 798.54 736.041 806.461C736.041 813.35 740.809 816.327 747.626 816.327C752.948 816.327 756.055 813.408 757.428 811.477H757.543V815.57H762.995C762.872 814.643 762.758 812.99 762.758 809.37V796.303C762.758 787.696 759.083 783.22 750.047 783.22C746.026 783.22 742.544 784.462 739.635 786.207L739.947 791.162ZM756.92 803.301C756.92 808.015 753.894 811.615 748.119 811.615C745.457 811.615 742.24 809.816 742.24 806.463C742.24 800.896 750.045 800.401 753.211 800.401C754.443 800.401 755.686 800.524 756.918 800.524V803.301H756.92ZM772.6 828.598H778.432V811.243H778.555C780.354 814.158 783.512 816.327 789.095 816.327C798.642 816.327 802.664 807.9 802.664 799.206C802.664 790.728 798.207 783.22 789.029 783.22C783.446 783.22 779.852 786.084 778.308 788.436H778.185V783.969H772.6V828.598ZM796.465 799.65C796.595 804.617 793.996 811.615 787.734 811.615C781.162 811.615 778.434 805.106 778.434 799.835C778.434 793.958 781.478 787.944 787.792 787.944C794.107 787.944 796.595 793.958 796.465 799.65ZM808.364 799.773C808.364 808.819 814.943 816.317 824.48 816.317C833.953 816.317 840.533 808.817 840.533 799.773C840.533 790.165 834.084 783.22 824.48 783.22C814.803 783.22 808.364 790.165 808.364 799.773ZM814.565 799.773C814.565 793.762 818.214 787.942 824.482 787.942C830.674 787.942 834.333 793.762 834.333 799.773C834.333 805.406 831.292 811.613 824.482 811.613C817.599 811.613 814.565 805.406 814.565 799.773ZM848.349 783.969H853.791V788.87H853.914C855.469 785.584 858.815 783.212 862.16 783.212C863.887 783.212 864.759 783.413 866.001 783.664V788.87C864.95 788.436 863.782 788.314 862.787 788.314C857.582 788.314 854.169 793.269 854.169 801.204V815.562H848.349V783.969ZM896.673 808.447C895.259 809.625 890.787 811.613 886.955 811.613C881.429 811.613 876.536 807.329 876.536 801.079H899.091C899.091 790.907 895.696 783.22 885.163 783.22C876.232 783.22 870.346 789.856 870.346 799.216C870.346 809.493 875.484 816.317 886.709 816.317C891.914 816.317 894.455 815.085 896.673 814.281V808.447ZM876.536 796.739C876.972 792.65 879.322 787.94 885.029 787.94C890.053 787.94 892.899 791.9 892.899 796.739H876.536ZM937.814 612.824C949.682 623.777 973.075 633.752 1001.64 634.198C1026.68 634.625 1046.88 627.093 1048.12 606.329C1050.78 561.396 935.546 579.37 940.013 503.521C942.232 465.561 979.92 452.989 1020.57 453.688C1042.55 454.058 1064.52 459.262 1076.57 465.372L1076.62 492.327C1061.92 482.254 1041.42 475.84 1024.46 475.519C998.669 475.05 978.192 479.795 977.863 498.651C977.166 537.976 1093.42 528.544 1088.98 603.78C1086.48 646.136 1045.32 659.13 1002.22 658.341C977.433 658.004 953.16 652.969 937.871 645.143L937.814 612.824ZM828.807 658.555C775.282 658.555 744.46 634.518 744.46 585.064V459.517H784.589L784.605 585.062C784.605 615.809 799.366 634.459 828.807 634.459C858.238 634.459 873.015 615.807 873.015 585.062L873.025 459.517H913.136V585.062C913.136 634.518 882.317 658.555 828.807 658.555ZM679.275 459.517V600.933L587.305 469.526C585.072 466.428 582.134 463.905 578.734 462.165C575.334 460.425 571.569 459.518 567.75 459.519H537.307V652.348H564.056V510.848L655.871 641.862C660.236 648.12 667.466 652.348 675.747 652.348H706.018V459.517H679.275ZM491.116 659.083V459.543H166.049V659.237C166.033 659.4 166.023 659.92 166.023 660.767C166.023 670.197 168.062 720.081 208.175 783.268C251.998 852.41 324.306 873.782 327.357 874.664L328.451 874.966L329.536 874.664C332.602 873.784 405.132 852.418 448.98 783.268C492.703 714.382 491.192 661.303 491.116 659.083Z" fill="#1D427C"/>
</g>
<mask id="mask1_3971_2183" style="mask-type:luminance" maskUnits="userSpaceOnUse" x="166" y="452" width="925" height="424">
<path d="M166 452H1090.58V875.681H166V452Z" fill="white"/>
</mask>
<g mask="url(#mask1_3971_2183)">
<path d="M318.256 483.528C317.705 483.421 304.474 481.094 288.678 481.094C276.154 481.094 264.855 484.861 259.888 486.776C254.921 484.86 243.621 481.094 231.107 481.094C215.31 481.094 202.069 483.421 201.52 483.528L199.734 483.849V567.987L202.357 567.421C202.464 567.395 213.417 565.043 229.536 565.043C241.649 565.043 254.206 568.424 259.148 570.199L259.888 570.472L260.628 570.199C265.57 568.422 278.127 565.043 290.256 565.043C306.357 565.043 317.309 567.395 317.416 567.421L320.041 567.987V483.849L318.256 483.528Z" fill="#EC8023"/>
</g>
<mask id="mask2_3971_2183" style="mask-type:luminance" maskUnits="userSpaceOnUse" x="166" y="452" width="925" height="424">
<path d="M166 452H1090.58V875.681H166V452Z" fill="white"/>
</mask>
<g mask="url(#mask2_3971_2183)">
<path d="M257.812 490.676C252.804 488.801 242.476 485.527 231.194 485.527C218.974 485.527 208.187 486.992 204.148 487.607V551.222C208.374 550.498 217.479 549.234 229.633 549.234C240.521 549.234 251.418 551.727 257.814 553.699L257.812 490.676ZM288.774 485.527C277.344 485.527 266.884 488.89 261.95 490.75V553.773C268.323 551.775 279.334 549.242 290.345 549.242C302.499 549.242 311.594 550.494 315.822 551.216V487.609C311.773 486.984 300.994 485.527 288.774 485.527Z" fill="white"/>
</g>
<mask id="mask3_3971_2183" style="mask-type:luminance" maskUnits="userSpaceOnUse" x="166" y="452" width="925" height="424">
<path d="M166 452H1090.58V875.681H166V452Z" fill="white"/>
</mask>
<g mask="url(#mask3_3971_2183)">
<path d="M216.135 496.136C214.573 496.554 213.709 497.985 214.186 499.342C214.673 500.692 216.326 501.44 217.887 501.029C217.969 501.003 226.044 499.58 232.927 499.58C239.177 499.58 246.183 502.419 246.257 502.442C247.786 502.945 249.48 502.271 250.056 500.945C250.631 499.621 249.852 498.149 248.327 497.639C247.983 497.524 240.27 494.465 232.925 494.465C225.133 494.467 216.497 496.046 216.135 496.136ZM216.135 508.767C214.573 509.193 213.709 510.624 214.186 511.981C214.673 513.321 216.326 514.086 217.887 513.658C217.969 513.642 226.044 512.219 232.927 512.219C239.177 512.219 246.183 515.056 246.257 515.081C247.786 515.574 249.48 514.9 250.056 513.576C250.631 512.254 249.852 510.78 248.327 510.287C247.983 510.171 240.27 507.096 232.925 507.096C225.133 507.098 216.497 508.677 216.135 508.767ZM216.135 521.413C214.573 521.834 213.709 523.273 214.186 524.615C214.673 525.962 216.326 526.727 217.887 526.299C217.969 526.283 226.044 524.85 232.927 524.85C239.177 524.85 246.183 527.689 246.257 527.712C247.786 528.215 249.48 527.541 250.056 526.215C250.631 524.883 249.852 523.419 248.327 522.926C247.983 522.819 240.27 519.735 232.925 519.735C225.133 519.737 216.497 521.308 216.135 521.413ZM216.135 534.047C214.573 534.473 213.709 535.912 214.186 537.254C214.673 538.601 216.326 539.36 217.887 538.94C217.969 538.924 226.044 537.483 232.927 537.483C239.177 537.483 246.183 540.336 246.257 540.353C247.786 540.856 249.48 540.19 250.056 538.856C250.631 537.532 249.852 536.052 248.327 535.567C247.983 535.45 240.27 532.366 232.925 532.366C225.133 532.366 216.497 533.955 216.135 534.047ZM304.068 496.136C305.632 496.554 306.494 497.985 306.017 499.342C305.531 500.692 303.879 501.44 302.318 501.029C302.242 501.003 294.159 499.58 287.276 499.58C281.033 499.58 274.028 502.419 273.954 502.442C272.425 502.945 270.723 502.271 270.155 500.945C269.58 499.621 270.351 498.149 271.882 497.639C272.209 497.524 279.941 494.465 287.276 494.465C295.078 494.467 303.704 496.046 304.068 496.136ZM304.068 508.767C305.632 509.193 306.494 510.624 306.017 511.981C305.531 513.321 303.879 514.086 302.318 513.658C302.242 513.642 294.159 512.219 287.276 512.219C281.033 512.219 274.028 515.056 273.954 515.081C272.425 515.574 270.723 514.9 270.155 513.576C269.58 512.254 270.351 510.78 271.882 510.287C272.209 510.171 279.941 507.096 287.276 507.096C295.078 507.098 303.704 508.677 304.068 508.767ZM304.068 521.413C305.632 521.834 306.494 523.273 306.017 524.615C305.531 525.962 303.879 526.727 302.318 526.299C302.242 526.283 294.159 524.85 287.276 524.85C281.033 524.85 274.028 527.689 273.954 527.712C272.425 528.215 270.723 527.541 270.155 526.215C269.58 524.883 270.351 523.419 271.882 522.926C272.209 522.819 279.941 519.735 287.276 519.735C295.078 519.737 303.704 521.308 304.068 521.413ZM304.068 534.047C305.632 534.473 306.494 535.912 306.017 537.254C305.531 538.601 303.879 539.36 302.318 538.94C302.242 538.924 294.159 537.483 287.276 537.483C281.033 537.483 274.028 540.336 273.954 540.353C272.425 540.856 270.723 540.19 270.155 538.856C269.58 537.532 270.351 536.052 271.882 535.567C272.209 535.45 279.941 532.366 287.276 532.366C295.078 532.366 303.704 533.955 304.068 534.047Z" fill="#1D427C"/>
</g>
<mask id="mask4_3971_2183" style="mask-type:luminance" maskUnits="userSpaceOnUse" x="166" y="452" width="925" height="424">
<path d="M166 452H1090.58V875.681H166V452Z" fill="white"/>
</mask>
<g mask="url(#mask4_3971_2183)">
<path d="M442.499 778.672C403.116 840.792 337.75 863.436 328.655 866.339C319.609 863.43 254.457 840.792 215.089 778.672C175.611 716.48 174.172 666.612 174.172 659.812C174.172 659.327 174.18 659.057 174.18 659.022V588.383H483.384V658.876C483.384 658.924 483.409 659.197 483.409 659.705C483.411 666.686 481.952 716.511 442.499 778.672Z" fill="white"/>
</g>
<mask id="mask5_3971_2183" style="mask-type:luminance" maskUnits="userSpaceOnUse" x="166" y="452" width="925" height="424">
<path d="M166 452H1090.58V875.681H166V452Z" fill="white"/>
</mask>
<g mask="url(#mask5_3971_2183)">
<path d="M468.816 645.608C467.219 639.793 464.285 637.211 460.379 635.142C449.598 629.425 435.52 633.438 423.175 637.632C413.86 640.814 411.046 641.77 400.489 643.388C392.511 644.613 365.843 648.067 357.406 641.092C356.204 640.089 354.989 637.901 354.867 636.497C354.625 633.594 355.942 630.122 356.954 629.022C359.086 626.685 364.051 625.56 372.142 625.56L392.791 625.883C394.082 627.544 397.387 630.215 405.775 632.009C419.113 634.861 433.783 630.223 433.783 630.223C433.783 630.223 431.357 629.746 429.343 628.233C427.56 626.901 427.716 624.894 427.716 624.894C427.716 624.894 430.65 626.309 434.936 626.187C440.263 626.029 442.75 623.496 447.723 622.232C452.698 620.964 458.247 622.01 458.247 622.01C458.247 622.01 453.215 616.63 448.223 615.676C443.258 614.732 437.048 616.005 437.048 616.005C437.048 616.005 438.604 615.306 440.454 613.637C441.943 612.298 442.237 610.012 442.237 610.012C442.237 610.012 436.275 612.315 430.231 612.002C424.187 611.688 424.631 609.5 412.896 609.18C403.997 608.949 396.645 614.237 393.603 616.811C384.092 616.188 376.601 615.849 372.208 615.849C360.12 615.849 353.138 617.831 348.862 622.468C345.3 626.342 343.749 631.366 344.266 637.395C344.66 642.074 346.749 646.013 350.48 649.089C361.762 658.43 392.034 655.569 402.749 653.669C414.748 651.55 418.332 650.62 425.28 648.324C425.28 648.318 425.675 648.193 425.675 648.193C431.053 646.383 447.409 640.925 454.269 644.566C455.667 645.296 456.621 646.679 457.203 648.785C457.466 649.738 457.589 650.585 457.589 651.375C457.589 652.798 457.16 653.98 456.272 655.059C450.024 662.7 426.528 664.006 416.323 664.55C415.205 664.277 408.388 662.746 399.326 662.7C393.259 662.665 388.184 663.054 382.814 663.455C373.014 664.195 362.873 664.96 346.033 663.035C338.219 662.139 330.901 660.718 325.383 659.088C325.12 656.991 324.15 655.001 322.053 652.649C326.092 653.955 331.343 649.516 332.817 647.304C332.802 647.08 325.646 645.189 325.217 640.543C325.21 640.395 330.284 640.964 332.397 633.997C327.33 631.251 328.917 630.239 326.483 626.818C324.337 623.807 321.23 622.287 317.398 622.384C318.952 622.179 319.092 622.384 320.778 621.539C322.982 620.427 324.511 617.401 326.699 617.524C322.283 610.617 310.433 609.712 305.516 611.166C306.784 609.597 308.723 607.852 308.748 605.699C302.196 607.508 295.78 604.106 289.17 605.339C283.692 606.367 280.569 608.592 278.858 613.799H278.612C276.885 608.594 273.77 606.367 268.285 605.339C261.69 604.106 255.26 607.508 248.714 605.699C248.747 607.852 250.679 609.597 251.936 611.166C247.028 609.712 235.177 610.617 230.761 617.524C232.957 617.401 234.478 620.427 236.675 621.539C238.622 622.509 239.009 622.31 240.053 622.384C236.238 622.287 233.121 623.807 230.973 626.818C228.522 630.239 230.126 631.251 225.052 633.997C227.174 640.964 232.256 640.395 232.247 640.543C231.811 645.189 224.657 647.08 224.631 647.304C226.113 649.514 231.359 653.955 235.413 652.649C232.091 656.364 231.54 659.203 232.295 662.945C227.139 659.031 222.057 654.714 219.353 651.138C218.72 650.215 216.697 643.563 215.357 639.163L214.263 635.576L213.729 633.668C212.117 627.739 210.555 622.773 207.859 622.115C206.554 621.795 205.21 621.673 203.869 621.751C202.94 620.297 201.641 618.766 200.128 618.289C197.003 617.343 195.49 618.026 195.49 618.026C195.49 618.026 198.024 619.845 198.878 621.71C199.093 622.187 199.225 622.649 199.315 623.06C198.783 623.352 198.279 623.693 197.809 624.078L197.58 624.259C197.258 624.514 196.822 624.876 196.355 625.297C196.141 625.231 195.927 625.18 195.705 625.157C192.464 624.728 191.082 625.667 191.082 625.667C191.082 625.667 192.842 626.529 194.151 627.733C193.023 629.302 192.085 631.316 192.085 633.808C192.085 634.047 192.11 634.3 192.133 634.565C189.041 634.793 187.891 635.922 187.891 635.922C187.891 635.922 190.899 636.734 192.363 638.168C192.521 638.331 192.669 638.497 192.792 638.652C192.651 638.816 192.544 638.931 192.544 638.931C191.937 639.905 191.624 641.033 191.641 642.181C191.641 644.885 193.154 647.798 195.243 649.714L201.328 654.746C203.524 659.656 205.956 663.973 207.553 665.79C208.055 666.405 211.451 672.26 215.053 678.454C215.53 679.276 216.017 680.123 216.518 680.98C217.291 684.777 218.171 689.506 218.556 693.223C219.271 699.91 218.589 707.375 218.589 707.375C218.589 707.375 222.924 707.161 224.888 704.34C224.929 704.268 226.483 708.97 226.261 714.266C226.08 718.182 225.036 723.616 225.036 723.616C225.036 723.616 229.264 721.373 232.438 718.56C234.04 717.152 235.652 714.817 236.64 713.289C240.127 715.508 250.126 711.953 255.108 709.959C256.08 711.932 257.42 714.128 259.26 716.609C259.992 713.618 263.183 712.118 264.663 709.727C265.107 709.72 265.566 709.72 266.02 709.72C266.201 712.993 265.255 716.069 268.347 722.193C269.227 723.93 273.528 730.344 276.652 733.623C275.477 739.174 273.225 749.288 270.904 757.569C268.24 767.042 266.084 771.746 264.86 773.935C261.29 774.108 254.777 774.328 252.705 774.237C247.748 773.999 244.07 775.045 241.794 777.329C241.622 777.494 241.488 777.667 241.342 777.841C239.613 778.078 237.633 778.622 236.556 779.831C234.393 782.28 234.385 783.943 234.385 783.943C234.385 783.943 237.082 782.383 239.13 782.383C239.286 782.383 239.426 782.403 239.566 782.413V782.833C239.599 783.316 239.87 784.089 240.331 785.035C240.001 785.266 239.704 785.543 239.451 785.857C237.463 788.437 237.568 790.112 237.568 790.112C237.568 790.112 240.102 788.406 242.14 788.242C242.775 789.261 243.488 790.308 244.247 791.327C244.156 791.426 244.056 791.531 243.992 791.64C242.201 794.376 242.438 796.031 242.438 796.031C242.438 796.031 244.444 794.45 246.344 793.934C246.994 794.674 247.627 795.342 248.235 795.865C251.22 798.498 258.629 796.794 268.02 794.294L273.834 792.855C277.946 792.092 280.495 790.449 282.378 787.366C282.83 786.64 283.233 785.448 283.866 783.538L284.409 781.91C285.708 778.261 286.72 775.942 289.294 771.803C289.384 771.68 291.902 767.628 295.323 762.049C298.356 759.528 302.015 756.601 304.671 754.79C308.733 752.06 316.817 747.93 316.817 747.93C316.817 747.93 314.664 744.431 311.447 743.943C311.381 743.937 315.544 739.708 319.031 738.206C322.953 736.493 328.027 735.566 328.027 735.566C328.027 735.566 326.177 731.785 323.323 729.947C324.515 729.555 325.601 728.864 326.948 727.974C333.773 723.519 338.807 723.683 343.56 725.014C343.741 721.938 342.968 720.045 340.302 718.262C342.547 717.317 344.866 716.494 347.325 715.91C348.879 718.581 350.639 721.535 351.436 722.67C354.956 727.661 360.253 734.528 364.538 738.822C364.643 738.927 364.694 739.124 364.694 739.406C364.694 741.197 362.505 746.162 361.25 748.999L360.179 751.453C360.179 751.463 355.871 761.594 354.614 764.546C352.106 764.692 344.827 765.089 342.278 764.956C337.444 764.734 333.867 765.747 331.647 767.959C331.376 768.225 331.129 768.513 330.907 768.821C329.106 769.141 326.95 769.799 325.881 771.164C323.858 773.74 323.94 775.389 323.94 775.389C323.94 775.389 326.54 773.689 328.586 773.567C328.909 773.547 329.205 773.557 329.493 773.58C329.575 774.114 329.871 774.897 330.333 775.81C329.856 776.158 329.435 776.54 329.141 777.001C327.348 779.733 327.579 781.377 327.579 781.377C327.579 781.377 330.021 779.455 332.06 779.157C332.134 779.147 332.198 779.147 332.282 779.138C332.769 779.887 333.302 780.654 333.843 781.394C333.651 781.586 333.475 781.794 333.318 782.015C331.524 784.755 331.754 786.414 331.754 786.414C331.754 786.414 334.098 784.56 336.096 784.212C336.719 784.928 337.329 785.559 337.895 786.062C340.75 788.579 346.85 787.076 355.157 784.687L361.078 783.143C365.082 782.393 367.574 780.8 369.418 777.79L370.97 774.435C371.702 772.741 372.541 770.813 373.174 769.813C374.136 768.302 375.148 766.473 376.176 764.501C377.355 763.482 378.556 762.488 379.779 761.522C382.429 759.495 389.154 755.785 389.154 755.785C389.154 755.785 387.813 752.839 385.065 752.561C385.032 752.551 387.741 749.541 390.988 747.668C393.29 746.326 397.862 745.539 397.862 745.539C397.862 745.539 394.704 742.866 392.31 741.82C391.349 741.409 390.089 741.123 388.899 740.917C388.743 739.55 388.029 738.021 386.71 735.992C384.352 732.338 387.805 724.495 390.28 720.053C391.53 721.811 393.767 724.74 397.5 728.883C397.5 728.883 409.482 741.986 412.123 744.885C410.789 750.248 409.172 755.536 407.278 760.727C405.362 765.971 402.623 771.44 401.227 774.139C398.341 774.295 391.796 774.634 389.401 774.523C384.574 774.285 380.998 775.298 378.768 777.519C378.422 777.866 378.113 778.249 377.847 778.66C376.219 779.054 374.451 779.731 373.54 780.941C371.564 783.554 371.68 785.216 371.68 785.216C371.68 785.216 373.645 783.371 376.293 783.308C376.424 783.308 376.531 783.316 376.648 783.316C376.77 783.873 377.082 784.632 377.541 785.518C377.079 785.833 376.678 786.229 376.359 786.689C374.574 789.424 374.804 791.079 374.804 791.079C374.804 791.079 377.245 789.138 379.278 788.85C379.352 788.834 379.424 788.834 379.49 788.827C380.125 789.781 380.805 790.758 381.504 791.681C381.494 791.699 381.48 791.715 381.463 791.726C379.67 794.448 379.911 796.111 379.911 796.111C379.911 796.111 381.71 794.682 383.513 794.097C384.031 794.682 384.551 795.205 385.018 795.618C387.881 798.144 394.006 796.644 402.336 794.244L408.199 792.699C412.214 791.958 414.703 790.355 416.537 787.345C417.353 786.003 420.996 777.519 421.999 775.066C423.811 770.64 425.742 766.264 427.79 761.942C428.777 761.101 429.696 760.359 430.436 759.837C433.719 757.561 440.732 753.564 440.732 753.564C440.732 753.564 439.334 750.563 436.637 750.339C436.602 750.331 439.393 747.668 442.171 745.892C444.745 744.237 449.432 743.32 449.432 743.32C449.432 743.32 446.052 740.744 443.667 739.715C442.263 739.106 440.271 738.719 438.857 738.5C438.437 736.508 437.436 735.843 435.923 735.079C434.583 734.392 432.749 733.467 429.943 730.169C426.351 725.933 425.798 717.841 425.798 709.766C425.798 707.99 425.833 706.213 425.848 704.478L425.864 696.73C425.632 687.619 424.302 681.264 423.037 677.066C434.918 675.991 456.685 673.582 465.607 662.678C468.281 659.405 469.636 655.573 469.636 651.396C469.619 649.439 469.344 647.493 468.816 645.608Z" fill="#1D427C"/>
</g>
<mask id="mask6_3971_2183" style="mask-type:luminance" maskUnits="userSpaceOnUse" x="166" y="452" width="925" height="424">
<path d="M166 452H1090.58V875.681H166V452Z" fill="white"/>
</mask>
<g mask="url(#mask6_3971_2183)">
<path d="M383.6 744.694C385.172 743.222 385.968 742.423 385.968 741.387C385.968 740.501 385.384 739.423 384.21 737.6C383.312 736.225 382.958 734.57 382.958 732.814C382.958 726.967 386.848 719.926 388.386 717.377C387.95 716.826 387.317 716.03 386.552 714.976C386.141 714.704 385.787 714.458 385.573 714.31C384.58 713.603 382.021 711.456 380.424 709.361C380.202 709.065 379.98 708.693 379.741 708.297C376.444 708.2 368.765 707.978 360.846 710.387C363.288 711.785 363.854 713.601 363.961 715.938C358.749 714.803 354.356 714.737 350.401 715.313C351.784 717.665 353.197 720.025 353.856 720.964C357.308 725.855 362.481 732.557 366.627 736.728C367.301 737.4 367.599 738.291 367.599 739.382C367.599 741.958 365.977 745.63 363.963 750.204L362.904 752.63L356.62 767.403L355.699 767.456C355.279 767.489 345.372 768.091 342.13 767.927C338.596 767.754 335.887 768.361 334.228 769.654C334.425 770.326 334.565 771.216 334.31 772.055C333.981 773.165 333.292 773.714 332.731 774.002C332.805 774.166 332.887 774.331 332.994 774.524C334.935 773.87 336.793 773.683 336.793 773.683C336.793 773.683 337.862 775.098 337.427 776.866C337.081 778.214 336.432 778.923 335.971 779.273C336.103 779.47 336.236 779.651 336.376 779.84C338.57 778.944 340.971 778.716 340.971 778.716C340.971 778.716 342.101 780.424 341.731 782.283C341.524 783.29 341.022 783.855 340.555 784.192C343.21 785.039 350.061 783.074 354.329 781.839L360.521 780.227C363.702 779.633 365.478 778.514 366.861 776.253L368.239 773.27C369.012 771.471 369.892 769.419 370.667 768.223C372.566 765.222 374.729 760.836 376.809 756.583C379.523 751.065 381.875 746.286 383.6 744.694ZM265.367 706.57C265.383 706.637 265.367 706.693 265.383 706.751H265.431C265.408 706.693 265.383 706.637 265.367 706.57Z" fill="#F19320"/>
</g>
<mask id="mask7_3971_2183" style="mask-type:luminance" maskUnits="userSpaceOnUse" x="166" y="452" width="925" height="424">
<path d="M166 452H1090.58V875.681H166V452Z" fill="white"/>
</mask>
<g mask="url(#mask7_3971_2183)">
<path d="M252.606 689.521C250.682 692.407 247.203 693.758 242.697 694.309C243.552 689.817 242.773 686.741 241.118 683.181C239.671 680.041 235.707 673.88 234.531 670.387C234.202 669.399 233.89 668.486 233.594 667.616C227.328 663.06 220.445 657.516 216.985 652.929C216.171 651.844 214.936 647.979 212.51 640.027L211.426 636.45L210.865 634.452C209.27 628.599 208.01 625.423 207.132 625.002C206.576 624.867 206.009 624.779 205.438 624.74V624.749C205.438 624.749 205.158 626.543 202.15 626.401C201.53 626.37 200.928 626.187 200.397 625.867C200.149 626.022 199.912 626.195 199.69 626.385L199.435 626.574L198.991 626.944C200.759 628.548 202.025 630.62 202.025 630.62C202.025 630.62 201.351 632.454 199.057 632.865C197.397 633.153 196.113 631.977 196.113 631.977C196.113 631.977 196.129 631.401 195.899 630.579C195.137 632.038 194.905 633.715 195.241 635.326C197.568 636.528 199.583 638.707 199.583 638.707C199.583 638.707 199.535 640.434 197.134 641.641C196.23 642.108 195.299 641.838 194.7 641.549C194.404 643.317 195.407 645.827 197.249 647.519L203.736 652.89L203.884 653.211C205.948 657.866 208.367 662.224 209.78 663.836C210.314 664.428 212.247 667.725 217.616 676.97C224.737 689.229 235.502 707.758 238.273 710.831C239.342 711.836 246.685 710.116 253.93 707.229C251.348 700.063 253.593 695.68 252.606 689.521ZM465.969 646.374C464.653 641.545 462.418 639.557 459.004 637.748C449.274 632.585 435.913 636.423 424.154 640.43C414.146 643.841 411.383 644.706 400.965 646.3C390.35 647.938 364.674 650.913 355.546 643.356C353.714 641.853 352.127 638.95 351.921 636.738C351.632 633.095 353.171 628.762 354.783 627.002C357.579 623.935 362.94 622.572 372.167 622.572C372.167 622.572 386.006 622.794 393.654 622.907L395.274 621.463L393.695 619.774C384.132 619.142 376.601 618.797 372.233 618.797C361.059 618.797 354.725 620.493 351.076 624.471C348.091 627.703 346.815 631.964 347.244 637.127C347.573 640.985 349.309 644.233 352.392 646.781C361.989 654.726 390.135 652.874 402.256 650.72C414.064 648.649 417.577 647.735 424.37 645.488L424.764 645.35C431.039 643.253 447.699 637.678 455.692 641.919C457.838 643.062 459.285 645.044 460.083 647.991C461.068 651.567 460.585 654.486 458.595 656.92C451.49 665.61 428.629 666.837 416.342 667.501L416.079 667.513L415.873 667.462C415.791 667.445 408.663 665.704 399.328 665.645C393.393 665.61 388.375 666 383.063 666.393C373.121 667.152 362.832 667.924 345.711 665.974C338.113 665.092 330.934 663.714 325.326 662.107C324.972 664.403 324.059 667.008 322.918 670.389C321.742 673.876 317.795 680.035 316.338 683.176C314.687 686.737 313.906 689.81 314.744 694.311C310.246 693.751 306.766 692.405 304.842 689.516C303.495 697.97 308.271 703.044 298.23 716.595C297.217 712.498 291.594 711.209 292.087 706.571C290.326 711.392 293.165 714.186 289.127 722.187C288.114 724.194 282.481 732.499 279.432 734.919C278.199 740.675 276.021 750.368 273.791 758.353C270.734 769.244 268.242 774.166 267.017 776.14L266.614 776.808L265.841 776.849C262.609 777.015 255.003 777.293 252.594 777.188C249.255 777.024 246.632 777.54 244.895 778.65C245.061 779.482 245.15 780.664 244.633 781.524C244.041 782.556 243.194 783.01 242.757 783.191C242.824 783.374 242.921 783.569 243.038 783.799C245.201 783.183 247.388 783.133 247.388 783.133C247.388 783.133 248.283 784.951 247.355 787.148C246.977 788.043 246.459 788.487 246.064 788.711C246.276 789.017 246.49 789.305 246.706 789.597C249 788.587 251.689 788.322 251.689 788.322C251.689 788.322 252.727 789.675 252.051 792.471C251.839 793.338 251.37 793.778 250.967 794C253.992 794.936 262.494 792.68 267.274 791.406L273.31 789.92C276.591 789.309 278.441 788.158 279.872 785.8C280.16 785.331 280.645 783.875 281.064 782.595C281.064 782.595 281.638 780.925 281.638 780.911C282.978 777.124 284.09 774.552 286.802 770.217C292.986 760.328 311.258 730.435 311.996 728.032C312.031 727.909 312.031 727.761 312.031 727.588C312.031 726.001 311.258 722.506 310.633 720.284L310.238 718.871L372.856 700.558L369.213 694.267L371.369 692.319C371.556 692.458 376.106 695.766 378.604 698.264C380.809 700.459 382.931 703.854 385.166 707.441L386.311 709.267C388.844 713.286 391.337 716.258 391.368 716.283L391.459 716.398L391.524 716.515C391.541 716.548 393.522 719.99 399.713 726.891L415.396 744.036L415.224 744.805C415.199 744.877 413.34 752.872 410.086 761.741C407.946 767.598 404.755 773.837 403.489 776.249L403.094 776.999L402.264 777.04C399.244 777.219 391.968 777.599 389.286 777.486C385.963 777.32 383.392 777.836 381.704 778.956C381.934 779.737 382.15 780.946 381.689 781.885C381.179 782.934 380.423 783.51 379.997 783.785C380.061 783.917 380.143 784.056 380.224 784.211C382.175 783.553 384.056 783.364 384.056 783.364C384.056 783.364 385.003 784.918 384.699 786.879C384.477 788.193 383.796 788.783 383.291 789.056C383.474 789.317 383.671 789.584 383.86 789.837C386.22 788.7 389.154 788.407 389.154 788.407C389.154 788.407 390.141 789.769 389.804 791.883C389.656 792.863 388.991 793.511 388.465 793.908C391.508 794.268 397.601 792.51 401.532 791.371L407.675 789.778C410.847 789.188 412.625 788.071 414.023 785.791C414.623 784.813 417.995 777.042 419.269 773.94C422.986 764.827 428.453 753.306 432.007 747.149L433.981 744.038C435.142 742.301 436.152 740.809 436.061 739.789C435.938 738.395 435.857 738.356 434.601 737.715C433.119 736.966 430.882 735.834 427.692 732.082C422.585 726.069 422.748 714.566 422.898 704.435L422.914 696.798C422.651 686.774 421.033 680.08 419.707 676.23L419.099 674.446L420.992 674.281C431.945 673.302 454.748 671.271 463.325 660.793C466.553 656.817 467.465 651.842 465.969 646.374Z" fill="#EC8023"/>
</g>
<mask id="mask8_3971_2183" style="mask-type:luminance" maskUnits="userSpaceOnUse" x="166" y="452" width="925" height="424">
<path d="M166 452H1090.58V875.681H166V452Z" fill="white"/>
</mask>
<g mask="url(#mask8_3971_2183)">
<path d="M406.822 528.34C408.124 530.021 409.189 531.872 409.986 533.842C408.953 533.99 407.899 534.08 406.822 534.08C405.746 534.08 404.694 533.998 403.656 533.858C404.462 531.886 405.527 530.031 406.822 528.34Z" fill="white"/>
</g>
<mask id="mask9_3971_2183" style="mask-type:luminance" maskUnits="userSpaceOnUse" x="166" y="452" width="925" height="424">
<path d="M166 452H1090.58V875.681H166V452Z" fill="white"/>
</mask>
<g mask="url(#mask9_3971_2183)">
<path d="M393.669 527.653C391.306 525.846 389.332 523.581 387.865 520.994C387.905 520.994 387.946 520.986 387.987 520.986C390.99 520.986 393.868 521.611 396.516 522.723C395.435 524.287 394.483 525.935 393.669 527.653ZM374.854 525.441C378.12 532.361 383.55 538.03 390.324 541.591C390.314 541.976 390.283 542.362 390.283 542.751C390.283 550.176 392.584 557.057 396.506 562.756C393.825 563.901 390.931 564.509 387.987 564.509C375.989 564.509 366.222 554.755 366.222 542.751C366.22 535.687 369.624 529.413 374.854 525.441ZM425.659 520.984L425.774 520.992C424.313 523.577 422.337 525.835 419.969 527.627C419.173 525.923 418.243 524.284 417.189 522.727C419.867 521.585 422.747 520.992 425.659 520.984ZM387.985 507.373C387.064 507.373 386.145 507.447 385.23 507.513C386.611 496.724 395.682 488.568 406.824 488.568C417.884 488.568 427.028 496.872 428.385 507.572L425.655 507.373C418.951 507.373 412.49 509.264 406.855 512.802C401.206 509.243 394.662 507.36 387.985 507.373ZM423.33 541.6C430.086 538.008 435.503 532.332 438.775 525.416C444.217 529.526 447.424 535.835 447.424 542.751C447.424 554.755 437.655 564.509 425.657 564.509C422.631 564.509 419.753 563.901 417.138 562.781C421.213 556.898 423.385 549.907 423.361 542.751L423.33 541.6ZM404.088 545.506L406.826 545.711C407.747 545.711 408.652 545.644 409.556 545.572C409.197 548.411 408.268 551.148 406.826 553.62C405.381 551.125 404.45 548.367 404.088 545.506ZM442.145 511.468C442.161 511.092 442.202 510.713 442.202 510.333C442.202 490.82 426.331 474.949 406.826 474.949C387.321 474.949 371.44 490.82 371.44 510.333L371.481 511.476C360.266 517.421 352.617 529.205 352.617 542.751C352.617 562.256 368.479 578.127 387.985 578.127C394.72 578.127 401.201 576.226 406.841 572.667C412.469 576.235 418.994 578.128 425.657 578.127C445.154 578.127 461.033 562.256 461.033 542.751C461.035 529.676 453.649 517.561 442.145 511.468Z" fill="#EC8023"/>
</g>
<mask id="mask10_3971_2183" style="mask-type:luminance" maskUnits="userSpaceOnUse" x="166" y="452" width="925" height="424">
<path d="M166 452H1090.58V875.681H166V452Z" fill="white"/>
</mask>
<g mask="url(#mask10_3971_2183)">
<path d="M413.543 545.211C415.514 544.821 417.448 544.262 419.324 543.543C419.223 549.824 417.215 555.926 413.569 561.042C411.975 559.981 410.532 558.711 409.277 557.266C411.694 553.672 413.161 549.525 413.543 545.211ZM406.818 479.121C424.138 479.121 438.231 493.215 438.231 510.533C438.231 527.858 424.136 541.954 406.818 541.954L403.94 541.742C404.037 539.816 404.384 537.941 404.978 536.142L406.818 536.264C420.995 536.264 432.54 524.718 432.54 510.533C432.54 496.355 420.995 484.811 406.818 484.811C400.385 484.776 394.176 487.171 389.432 491.515C384.688 495.86 381.758 501.835 381.228 508.247C379.251 508.639 377.311 509.201 375.43 509.925C375.759 492.886 389.696 479.121 406.818 479.121Z" fill="white"/>
</g>
<mask id="mask11_3971_2183" style="mask-type:luminance" maskUnits="userSpaceOnUse" x="166" y="452" width="925" height="424">
<path d="M166 452H1090.58V875.681H166V452Z" fill="white"/>
</mask>
<g mask="url(#mask11_3971_2183)">
<path d="M425.647 511.535L428.52 511.749C428.419 513.655 428.065 515.538 427.466 517.349L425.647 517.233C421.851 517.233 418.1 518.122 414.695 519.735C413.375 518.205 411.926 516.794 410.362 515.515C415.032 512.9 420.295 511.529 425.647 511.535ZM387.984 574.38C370.658 574.38 356.562 560.276 356.562 542.958C356.562 525.638 370.658 511.535 387.984 511.535C400.444 511.535 411.486 518.722 416.578 529.963C414.884 530.812 413.084 531.468 411.182 531.856C409.101 527.469 405.814 523.764 401.706 521.175C397.599 518.586 392.839 517.218 387.984 517.233C373.799 517.233 362.252 528.779 362.252 542.956C362.252 557.134 373.799 568.678 387.984 568.678C391.808 568.678 395.568 567.781 398.995 566.145C400.314 567.669 401.758 569.081 403.312 570.364C398.635 573.005 393.354 574.389 387.984 574.38Z" fill="white"/>
</g>
<mask id="mask12_3971_2183" style="mask-type:luminance" maskUnits="userSpaceOnUse" x="166" y="452" width="925" height="424">
<path d="M166 452H1090.58V875.681H166V452Z" fill="white"/>
</mask>
<g mask="url(#mask12_3971_2183)">
<path d="M383.62 521.635C385.556 525.638 388.483 529.08 392.123 531.634C391.481 533.54 391.006 535.497 390.7 537.502C385.217 534.224 380.867 529.347 378.234 523.526C379.928 522.679 381.722 522.021 383.62 521.635ZM425.649 574.379C408.324 574.379 394.23 560.276 394.23 542.958C394.23 536.354 396.244 530.13 400.027 524.807C401.622 525.868 403.068 527.138 404.326 528.582C401.448 532.824 399.912 537.833 399.918 542.958C399.918 557.135 411.463 568.68 425.648 568.68C439.825 568.68 451.369 557.135 451.369 542.958C451.369 534.43 447.232 526.692 440.3 521.873C440.944 519.951 441.423 517.979 441.733 515.977C451.114 521.602 457.061 531.906 457.061 542.958C457.063 560.274 442.969 574.379 425.649 574.379Z" fill="white"/>
</g>
<mask id="mask13_3971_2183" style="mask-type:luminance" maskUnits="userSpaceOnUse" x="166" y="452" width="925" height="424">
<path d="M166 452H1090.58V875.681H166V452Z" fill="white"/>
</mask>
<g mask="url(#mask13_3971_2183)">
<path d="M302.014 636.538C303.873 635.245 308.313 631.561 305.945 627.089C303.429 622.361 297.64 624.285 295.923 624.992C295.684 624.746 282.879 619.177 282.706 619.275C282.828 619.193 277.707 625.198 277.707 625.198C277.707 625.198 272.618 619.193 272.723 619.275C272.542 619.177 259.747 624.746 259.507 624.992C257.788 624.285 252.007 622.361 249.491 627.089C247.106 631.559 251.555 635.243 253.415 636.538C253.389 636.612 253.374 636.645 253.374 636.645C253.374 636.645 249.197 644.044 249.246 643.953C249.312 643.83 261.308 658.483 261.308 658.483C261.326 658.449 261.285 667.917 261.285 667.957C261.285 667.957 266.054 671.162 266.416 671.262C267.181 674.856 267.413 676.712 268.25 678.663C268.523 679.286 273.093 680.622 277.542 680.694H277.896C282.328 680.622 286.917 679.286 287.173 678.663C288.02 676.712 288.251 674.856 289.007 671.262C289.384 671.162 294.122 667.957 294.122 667.957C294.13 667.965 294.122 658.506 294.13 658.483C294.122 658.483 306.128 643.828 306.186 643.953C306.243 644.044 302.066 636.645 302.066 636.645L302.014 636.538Z" fill="#EC8023"/>
</g>
<mask id="mask14_3971_2183" style="mask-type:luminance" maskUnits="userSpaceOnUse" x="166" y="452" width="925" height="424">
<path d="M166 452H1090.58V875.681H166V452Z" fill="white"/>
</mask>
<g mask="url(#mask14_3971_2183)">
<path d="M260.539 637.271L271.673 637.141L271.27 643.381L260.539 637.271ZM285.562 643.529L287.272 658.47C287.272 658.47 279.426 662.722 279.041 662.929C279.031 663.347 278.99 667.911 278.99 668.264C279.352 668.537 280.768 669.598 282.232 670.215C284.878 671.331 287.527 670.682 287.56 670.673L288.218 670.501L287.657 672.483L287.418 672.524C287.295 672.55 284.31 673.085 281.876 672.353C279.769 671.712 278.669 670.906 278.373 670.674H277.1C276.811 670.889 275.653 671.712 273.515 672.353C271.098 673.085 268.104 672.55 267.989 672.524L267.744 672.483L267.183 670.501L267.841 670.673C267.874 670.682 270.52 671.331 273.178 670.215C274.642 669.598 276.058 668.537 276.41 668.264L276.395 662.868C276.073 662.656 268.187 657.046 268.187 657.046C268.187 657.046 282.117 657.031 282.867 657.021V637.476L294.462 637.386L295.927 637.376C295.925 637.378 285.981 643.272 285.562 643.529Z" fill="#1D427C"/>
</g>
<defs>
<filter id="filter0_i_3971_2183" x="0" y="-16" width="1256" height="1272" filterUnits="userSpaceOnUse" color-interpolation-filters="sRGB">
<feFlood flood-opacity="0" result="BackgroundImageFix"/>
<feBlend mode="normal" in="SourceGraphic" in2="BackgroundImageFix" result="shape"/>
<feColorMatrix in="SourceAlpha" type="matrix" values="0 0 0 0 0 0 0 0 0 0 0 0 0 0 0 0 0 0 127 0" result="hardAlpha"/>
<feMorphology radius="16" operator="erode" in="SourceAlpha" result="effect1_innerShadow_3971_2183"/>
<feOffset dy="-16"/>
<feGaussianBlur stdDeviation="25.2"/>
<feComposite in2="hardAlpha" operator="arithmetic" k2="-1" k3="1"/>
<feColorMatrix type="matrix" values="0 0 0 0 0 0 0 0 0 0 0 0 0 0 0 0 0 0 0.18 0"/>
<feBlend mode="normal" in2="shape" result="effect1_innerShadow_3971_2183"/>
</filter>
<radialGradient id="paint0_radial_3971_2183" cx="0" cy="0" r="1" gradientUnits="userSpaceOnUse" gradientTransform="translate(645.5 459.5) rotate(91.2587) scale(796.692)">
<stop stop-color="white"/>
<stop offset="1" stop-color="#EFF1FF"/>
</radialGradient>
</defs>
</svg>
